<?xml version="1.0" encoding="UTF-8"?>
<svg width="32px" height="32px" viewBox="0 0 32 32" version="1.1" xmlns="http://www.w3.org/2000/svg" xmlns:xlink="http://www.w3.org/1999/xlink">
    <title>编组</title>
    <g id="留言墙" stroke="none" stroke-width="1" fill="none" fill-rule="evenodd">
        <g id="首页" transform="translate(-30.000000, -10.000000)">
            <g id="编组" transform="translate(30.000000, 10.000000)">
                <rect id="矩形" fill="#B7B7B7" opacity="0" x="0" y="0" width="32" height="32"></rect>
                <path d="M3.92308291,6.52079314 L11.6822922,10.5576791 C13.6675812,11.5905659 14.9130435,13.6424839 14.9130435,15.8803909 L14.9130435,24.6614913 C14.9130435,25.7660608 14.017613,26.6614913 12.9130435,26.6614913 C12.5916798,26.6614913 12.2750482,26.5840512 11.9899606,26.4357286 L4.23075127,22.3988427 C2.24546227,21.3659558 1,19.3140378 1,17.0761308 L1,8.29503042 C1,7.19046092 1.8954305,6.29503042 3,6.29503042 C3.32136364,6.29503042 3.63799523,6.37247049 3.92308291,6.52079314 Z" id="矩形" fill="#3B73F0"></path>
                <path d="M20.2307513,10.5576791 L27.9899606,6.52079314 C28.9698448,6.01098852 30.1774761,6.39206331 30.6872808,7.37194751 C30.8356034,7.65703519 30.9130435,7.97366678 30.9130435,8.29503042 L30.9130435,17.0761308 C30.9130435,19.3140378 29.6675812,21.3659558 27.6822922,22.3988427 L19.9230829,26.4357286 C18.9431987,26.9455332 17.7355673,26.5644584 17.2257627,25.5845742 C17.0774401,25.2994866 17,24.982855 17,24.6614913 L17,15.8803909 C17,13.6424839 18.2454623,11.5905659 20.2307513,10.5576791 Z" id="矩形备份-7" fill="#3B73F0"></path>
            </g>
        </g>
    </g>
</svg>